<?xml version="1.0" encoding="utf-8"?>
<!-- Generator: Adobe Illustrator 17.1.0, SVG Export Plug-In . SVG Version: 6.00 Build 0)  -->
<!DOCTYPE svg PUBLIC "-//W3C//DTD SVG 1.1//EN" "http://www.w3.org/Graphics/SVG/1.1/DTD/svg11.dtd">
<svg version="1.1" id="Layer_1" xmlns="http://www.w3.org/2000/svg" xmlns:xlink="http://www.w3.org/1999/xlink" x="0px" y="0px"
	 viewBox="0 0 1280 800" enable-background="new 0 0 1280 800" xml:space="preserve">
<g>
	<g>
		<path fill="#FFFFFF" d="M468.5,464.7c0-1.8,1.5-3.3,3.3-3.3h327.7c1.8,0,3.3,1.5,3.3,3.3v8.9c0,1.8-1.5,3.3-3.3,3.3H471.8
			c-1.8,0-3.3-1.5-3.3-3.3V464.7z M594.9,359.6h173.8c10,0,18.5,5.5,18.5,12v78.7h-303C486.7,400.2,536.1,359.6,594.9,359.6
			 M565.7,254.5c0-4.3,3.6-7.8,7.8-7.8h3.5v1.1c0,7.9,6.5,14.4,14.4,14.4h136.9c7.9,0,14.4-6.5,14.4-14.4v-1.1h3.8
			c4.1,0,7.5,3.5,7.5,7.7v94.1H620.2c-8.7-8.9-35.8-36.5-40.9-42.1c-9.6-10.5-11.7-22.4-11.7-22.5c-1.1-6.9-1.9-18.5-1.9-25.5
			L565.7,254.5z M731.7,247.8c0,1.8-1.5,3.3-3.3,3.3H591.5c-1.8,0-3.3-1.5-3.3-3.3v-13.3c0-1.8,1.5-3.3,3.3-3.3h136.9
			c1.8,0,3.3,1.5,3.3,3.3V247.8z M799.4,450.3h-1.2v-78.7c0-12.7-13.3-23.1-29.5-23.1h-3.5v-94.1c0-10.4-8.3-18.8-18.6-18.8h-3.8
			v-1.1c0-7.9-6.5-14.4-14.4-14.4H591.5c-7.9,0-14.4,6.5-14.4,14.4v1.1h-3.5c-10.3,0-18.8,8.4-18.9,18.8l0,4
			c-0.1,7.6,0.8,19.8,2,27.3c0.1,0.6,2.5,15.2,14.5,28.2c4.4,4.8,23.7,24.5,33.6,34.6h-9.8c-64.9,0-119.3,45.6-121.8,101.8h-1.3
			c-7.9,0-14.4,6.5-14.4,14.4v8.9c0,7.9,6.5,14.4,14.4,14.4h327.7c7.9,0,14.4-6.5,14.4-14.4v-8.9
			C813.8,456.8,807.4,450.3,799.4,450.3"/>
		<path fill="#FFFFFF" d="M1196.4,620.8h-13.9l7-16.2L1196.4,620.8z M1219.5,643.7l-24.1-55.7h-12l-24.1,55.7h13.2l5.2-12h23.3
			l5.2,12H1219.5z M1132.5,623.9l-27.3-35.9h-11.6v55.7h12.4v-34.9l26.5,34.9h12.4V588h-12.4V623.9z M1056,620.8H1042l7-16.2
			L1056,620.8z M1079.1,643.7L1055,588h-12l-24.1,55.7h13.2l5.2-12h23.4l5.2,12H1079.1z M992.1,643.7h12.4V588h-12.4V643.7z
			 M960.5,630.7c-2.9,1.7-6.4,2.5-10.8,2.5s-8-1.6-11.1-4.7c-3.1-3.2-4.7-7.4-4.7-12.6s1.6-9.5,4.9-12.7c3.2-3.2,7.2-4.8,12-4.8
			c2.4,0,4.7,0.4,6.8,1.2c2.1,0.8,4.4,2.3,6.9,4.5l6.5-9.3c-5.9-5.3-12.8-7.9-20.8-7.9c-8,0-14.8,2.8-20.5,8.3
			c-5.7,5.5-8.5,12.4-8.5,20.7s2.8,15.1,8.3,20.5c5.6,5.4,12.4,8.1,20.6,8.1c9.8,0,17.4-3.1,23-9.2v-19.8h-12.5V630.7z M890.2,643.7
			h12.4V588h-12.4V643.7z M873.2,598.8V588h-44v10.8h15.8v45h12.4v-45H873.2z M790.5,615.2h-9.1v-16.5h9.3c4,0,6.8,0.6,8.4,1.7
			c1.6,1.1,2.4,3.2,2.4,6.2c0,3-0.8,5.2-2.3,6.6C797.7,614.5,794.8,615.2,790.5,615.2 M808.6,592.4c-3.7-2.9-9.9-4.4-18.5-4.4H769
			v55.7h12.4V626h8.6l12.4,17.8h15.3l-14.1-19.9c7.1-2.6,10.6-8.4,10.6-17.3C814.2,600,812.3,595.3,808.6,592.4 M731.5,620.8h-13.9
			l7-16.2L731.5,620.8z M754.6,643.7L730.5,588h-12l-24.1,55.7h13.2l5.2-12h23.4l5.2,12H754.6z M635.1,620.8h-13.9l7-16.2
			L635.1,620.8z M658.2,643.7L634.1,588h-12L598,643.7h13.2l5.2-12h23.4l5.2,12H658.2z M571.2,643.7h12.4V588h-12.4V643.7z
			 M526.8,615.2h-9.1v-16.5h9.3c4,0,6.8,0.6,8.4,1.7c1.6,1.1,2.4,3.2,2.4,6.2c0,3-0.8,5.2-2.3,6.6
			C533.9,614.5,531,615.2,526.8,615.2 M544.9,592.4c-3.7-2.9-9.9-4.4-18.5-4.4h-21.1v55.7h12.4V626h8.6l12.4,17.8H554l-14.1-19.9
			c7.1-2.6,10.6-8.4,10.6-17.3C550.5,600,548.6,595.3,544.9,592.4 M445.2,588v55.7h41v-11h-28.6v-11.6h24.9v-10.6h-24.9v-11.5h27.7
			V588H445.2z M396.2,632.7h-7.9v-33.9h6.9c6.3,0,11,1.5,14.1,4.4c3.1,2.9,4.6,7.2,4.6,12.6c0,5.5-1.5,9.6-4.6,12.5
			C406.3,631.3,401.9,632.7,396.2,632.7 M395.6,588h-19.7v55.7h19c10.6,0,18.5-2.5,23.7-7.6c5.2-5.1,7.8-11.9,7.8-20.6
			c0-8.7-2.7-15.4-8-20.3C413.2,590.5,405.5,588,395.6,588 M341.8,623.9L314.5,588h-11.6v55.7h12.4v-34.9l26.5,34.9h12.4V588h-12.4
			V623.9z M265.3,620.8h-13.9l7-16.2L265.3,620.8z M288.4,643.7L264.3,588h-12l-24.1,55.7h13.2l5.2-12H270l5.2,12H288.4z M182.5,588
			H169l22.4,55.7h10.5l22.4-55.7h-13.5l-14.2,35.5L182.5,588z M142,620.8h-13.9l7-16.2L142,620.8z M165.1,643.7L141,588h-12
			l-24.1,55.7h13.2l5.2-12h23.4l5.2,12H165.1z M95.1,643.7v-11.1H71.4V588H59v55.7H95.1z"/>
		<path fill="#FFFFFF" d="M365,332.8h-9.3v46h9.3V332.8z M329.7,370.2c-1.3,1-2.7,1.5-4.4,1.5c-1.7,0-2.9-0.3-3.8-1
			c-0.9-0.6-1.3-1.6-1.3-2.8c0-2.3,1.9-3.5,5.6-3.5h5.8v1.6C331.6,367.8,331,369.2,329.7,370.2 M341,357.6c0-4.4-1.3-7.6-3.8-9.6
			c-2.6-2-5.9-3-9.9-3c-5.6,0-10.6,1.6-15,4.8l4.2,6c1.2-1,2.8-1.7,4.6-2.4c1.8-0.6,3.5-1,5.1-1c3.8,0,5.6,1.8,5.6,5.3v0.2h-6.9
			c-4.3,0-7.7,0.8-10.2,2.5c-2.5,1.7-3.7,4.2-3.7,7.7c0,3.4,1.2,6.1,3.6,8.2c2.4,2,5.4,3.1,8.9,3.1c3.5,0,6.5-1.5,8.9-4.5v4h8.7
			V357.6z M275,355.5c1.6-1.8,3.5-2.7,5.6-2.7c2.2,0,4,0.9,5.5,2.7c1.5,1.8,2.3,4,2.3,6.8c0,2.7-0.8,4.9-2.3,6.6
			c-1.5,1.7-3.3,2.6-5.5,2.6c-2.1,0-4-0.9-5.6-2.6c-1.6-1.7-2.4-3.9-2.4-6.6C272.7,359.5,273.4,357.3,275,355.5 M288.3,374.4v4.4
			h9.3v-46h-9.3v16.4c-2.6-2.9-5.9-4.3-9.9-4.3s-7.6,1.6-10.6,4.7c-3,3.2-4.5,7.2-4.5,12.2c0,5,1.5,9.1,4.6,12.5
			c3.1,3.4,6.6,5,10.6,5C282.5,379.3,285.7,377.7,288.3,374.4"/>
		<path fill="#FFFFFF" d="M1026.4,343.7h8.2v35.1h9.3v-43.3h-17.5V343.7z M993.2,353.5c-1.1-1.3-1.6-2.8-1.6-4.6
			c0-1.8,0.6-3.3,1.8-4.5c1.2-1.2,2.7-1.8,4.6-1.8c1.9,0,3.4,0.7,4.6,2c1.2,1.3,1.9,2.9,1.9,4.7s-0.6,3.3-1.9,4.4
			c-1.3,1.1-2.9,1.7-4.8,1.7S994.2,354.8,993.2,353.5 M992.5,370c-1.4-0.7-2.3-1.2-2.8-1.6c-0.5-0.4-0.9-0.7-1.1-1l-4.8,6.8
			c1.2,1,2.3,1.7,3.3,2.3c1,0.6,2.4,1.2,4.2,1.8c1.9,0.6,3.8,0.9,5.8,0.9c4.8,0,8.9-1.7,12.3-5.2c1.7-1.7,3-4.1,3.9-7.1
			c1-3,1.5-6.5,1.5-10.4c0-6.2-1.2-11.3-3.7-15.4c-1.3-2.1-3-3.8-5.3-4.9c-2.3-1.2-4.9-1.8-8-1.8c-4.4,0-8.1,1.3-11,4
			c-2.9,2.7-4.4,6.2-4.4,10.6c0,4.4,1.4,7.9,4.1,10.6c2.7,2.7,6.1,4,10.1,4c3.1,0,5.9-0.9,8.6-2.7c-0.3,3.1-1.2,5.6-2.7,7.4
			c-1.5,1.8-3.5,2.7-6.2,2.7C995.1,371,993.8,370.7,992.5,370 M948,353.5c-1.1-1.3-1.6-2.8-1.6-4.6c0-1.8,0.6-3.3,1.8-4.5
			c1.2-1.2,2.7-1.8,4.6-1.8c1.9,0,3.4,0.7,4.6,2c1.2,1.3,1.9,2.9,1.9,4.7s-0.6,3.3-1.9,4.4c-1.3,1.1-2.9,1.7-4.8,1.7
			C950.5,355.4,949,354.8,948,353.5 M947.3,370c-1.4-0.7-2.3-1.2-2.8-1.6c-0.5-0.4-0.9-0.7-1.1-1l-4.8,6.8c1.2,1,2.3,1.7,3.3,2.3
			c1,0.6,2.4,1.2,4.2,1.8c1.9,0.6,3.8,0.9,5.8,0.9c4.8,0,8.9-1.7,12.3-5.2c1.7-1.7,3-4.1,3.9-7.1c1-3,1.5-6.5,1.5-10.4
			c0-6.2-1.2-11.3-3.7-15.4c-1.3-2.1-3-3.8-5.3-4.9c-2.3-1.2-4.9-1.8-8-1.8c-4.4,0-8.1,1.3-11,4c-2.9,2.7-4.4,6.2-4.4,10.6
			c0,4.4,1.4,7.9,4.1,10.6c2.7,2.7,6.1,4,10.1,4c3.1,0,5.9-0.9,8.6-2.7c-0.3,3.1-1.2,5.6-2.7,7.4c-1.5,1.8-3.5,2.7-6.2,2.7
			C949.9,371,948.7,370.7,947.3,370 M904.8,343.7h8.2v35.1h9.3v-43.3h-17.5V343.7z"/>
		<path fill="#FFFFFF" d="M963.3,720c-3.3-3.3-7.5-5-12.6-5c-5.1,0-9.3,1.7-12.6,5c-3.3,3.3-5,7.4-5,12.2c0,4.8,1.7,8.9,5,12.2
			c3.4,3.3,7.6,5,12.6,5c5.1,0,9.3-1.7,12.6-5c3.4-3.3,5-7.4,5-12.2C968.3,727.4,966.6,723.3,963.3,720 M944.7,725.5
			c1.5-1.7,3.5-2.6,5.9-2.6s4.4,0.9,6,2.6c1.5,1.7,2.3,4,2.3,6.7c0,2.7-0.8,5-2.3,6.7c-1.6,1.7-3.5,2.6-6,2.6s-4.4-0.9-5.9-2.6
			c-1.6-1.7-2.3-3.9-2.3-6.7C942.4,729.5,943.2,727.3,944.7,725.5 M920,702.9h-9.3v46h9.3V702.9z M895.7,702.9h-9.3v46h9.3V702.9z
			 M860.4,740.2c-1.3,1-2.7,1.5-4.4,1.5c-1.7,0-2.9-0.3-3.8-1c-0.9-0.6-1.3-1.6-1.3-2.8c0-2.3,1.9-3.5,5.6-3.5h5.8v1.6
			C862.3,737.9,861.7,739.2,860.4,740.2 M871.7,727.6c0-4.4-1.3-7.6-3.8-9.6c-2.6-2-5.9-3-9.9-3c-5.6,0-10.6,1.6-15,4.8l4.2,6
			c1.2-1,2.8-1.7,4.6-2.4c1.8-0.6,3.5-1,5.1-1c3.8,0,5.6,1.8,5.6,5.3v0.2h-6.9c-4.3,0-7.7,0.8-10.2,2.5c-2.5,1.7-3.7,4.2-3.7,7.7
			c0,3.4,1.2,6.1,3.6,8.2c2.4,2,5.4,3.1,8.9,3.1c3.5,0,6.5-1.5,8.9-4.5v4h8.7V727.6z M807.3,725.5c1.5-1.8,3.4-2.7,5.5-2.7
			c2.2,0,4.1,0.9,5.6,2.7c1.6,1.8,2.4,4.1,2.4,6.8c0,2.7-0.8,4.9-2.4,6.6c-1.6,1.7-3.5,2.6-5.6,2.6c-2.1,0-4-0.9-5.5-2.6
			c-1.5-1.7-2.3-3.9-2.3-6.6C805,729.5,805.8,727.3,807.3,725.5 M805.2,719.3v-16.4h-9.3v46h9.3v-4.4c2.6,3.3,5.9,4.9,9.8,4.9
			s7.5-1.7,10.6-5c3.1-3.3,4.6-7.5,4.6-12.5c0-5-1.5-9-4.5-12.2c-3-3.2-6.6-4.7-10.6-4.7C811,715,807.7,716.4,805.2,719.3
			 M769.9,740.2c-1.3,1-2.7,1.5-4.4,1.5c-1.7,0-2.9-0.3-3.8-1c-0.9-0.6-1.3-1.6-1.3-2.8c0-2.3,1.9-3.5,5.6-3.5h5.8v1.6
			C771.8,737.9,771.2,739.2,769.9,740.2 M781.2,727.6c0-4.4-1.3-7.6-3.8-9.6c-2.6-2-5.9-3-9.9-3c-5.6,0-10.6,1.6-15,4.8l4.1,6
			c1.2-1,2.8-1.7,4.6-2.4c1.8-0.6,3.5-1,5.1-1c3.8,0,5.6,1.8,5.6,5.3v0.2h-6.9c-4.3,0-7.7,0.8-10.2,2.5c-2.5,1.7-3.7,4.2-3.7,7.7
			c0,3.4,1.2,6.1,3.6,8.2c2.4,2,5.4,3.1,8.9,3.1c3.5,0,6.5-1.5,8.9-4.5v4h8.7V727.6z M729.2,738.7c-2.2,1.3-5,1.9-8.4,1.9
			c-3.4,0-6.2-1.2-8.7-3.7c-2.4-2.5-3.6-5.7-3.6-9.8c0-4.1,1.3-7.4,3.8-9.9c2.5-2.5,5.6-3.8,9.3-3.8c1.9,0,3.7,0.3,5.3,1
			c1.6,0.6,3.4,1.8,5.4,3.5l5-7.3c-4.6-4.1-10-6.1-16.2-6.1c-6.2,0-11.5,2.1-15.9,6.4c-4.4,4.3-6.6,9.7-6.6,16.1
			c0,6.4,2.2,11.7,6.5,16c4.3,4.2,9.7,6.3,16,6.3c7.6,0,13.6-2.4,17.9-7.2v-15.4h-9.7V738.7z M651.6,740.2c-1.3,1-2.7,1.5-4.4,1.5
			s-2.9-0.3-3.8-1c-0.9-0.6-1.3-1.6-1.3-2.8c0-2.3,1.9-3.5,5.6-3.5h5.8v1.6C653.5,737.9,652.9,739.2,651.6,740.2 M662.9,727.6
			c0-4.4-1.3-7.6-3.8-9.6c-2.6-2-5.9-3-9.9-3c-5.6,0-10.6,1.6-15,4.8l4.2,6c1.2-1,2.8-1.7,4.6-2.4c1.8-0.6,3.5-1,5.1-1
			c3.8,0,5.6,1.8,5.6,5.3v0.2h-6.9c-4.3,0-7.7,0.8-10.2,2.5c-2.5,1.7-3.7,4.2-3.7,7.7c0,3.4,1.2,6.1,3.6,8.2c2.4,2,5.4,3.1,8.9,3.1
			c3.5,0,6.5-1.5,8.9-4.5v4h8.7V727.6z M619.6,702.9h-9.3v46h9.3V702.9z M588,728.9h-14.6c0.3-1.9,1.1-3.4,2.7-4.5
			c1.5-1.1,3.2-1.7,5.1-1.7c1.8,0,3.4,0.5,4.7,1.6C587,725.4,587.7,726.9,588,728.9 M589.4,738.4c-2.1,2.2-4.8,3.3-8.1,3.3
			c-2,0-3.8-0.6-5.5-1.7c-1.6-1.2-2.6-2.6-2.9-4.5h24.3v-5c0-4.8-1.6-8.6-4.8-11.4c-3.2-2.8-7.1-4.2-11.7-4.2
			c-4.6,0-8.6,1.6-11.9,4.6c-3.4,3.1-5.1,7.3-5.1,12.5s1.7,9.4,5,12.6c3.3,3.1,7.5,4.7,12.6,4.7c5.1,0,9.5-1.8,13.2-5.3L589.4,738.4
			z M546.1,712.9c1.5,0,2.8-0.5,3.9-1.6c1.1-1.1,1.6-2.3,1.6-3.9s-0.5-2.8-1.6-3.9c-1.1-1.1-2.3-1.6-3.9-1.6c-1.5,0-2.8,0.5-3.9,1.6
			c-1.1,1.1-1.6,2.3-1.6,3.9s0.5,2.8,1.6,3.9C543.3,712.4,544.6,712.9,546.1,712.9 M550.8,715.5h-9.3v33.4h9.3V715.5z M507,724.4
			c1.4-1.3,3-2,4.9-2c3.8,0,5.6,2.6,5.6,7.7v18.8h9.3v-20.3c0-4.1-1.2-7.4-3.6-9.9c-2.4-2.5-5.3-3.7-8.8-3.7c-3.5,0-6.7,1.4-9.5,4.3
			v-3.7h-9.3v33.4h9.3v-18.6C505,727.7,505.6,725.7,507,724.4 M469.7,740.2c-1.3,1-2.7,1.5-4.4,1.5c-1.7,0-2.9-0.3-3.8-1
			c-0.9-0.6-1.3-1.6-1.3-2.8c0-2.3,1.9-3.5,5.6-3.5h5.8v1.6C471.6,737.9,471,739.2,469.7,740.2 M481,727.6c0-4.4-1.3-7.6-3.8-9.6
			c-2.6-2-5.9-3-9.9-3c-5.6,0-10.6,1.6-15,4.8l4.2,6c1.2-1,2.8-1.7,4.6-2.4c1.8-0.6,3.5-1,5.1-1c3.8,0,5.6,1.8,5.6,5.3v0.2h-6.9
			c-4.3,0-7.7,0.8-10.2,2.5c-2.5,1.7-3.7,4.2-3.7,7.7c0,3.4,1.2,6.1,3.6,8.2c2.4,2,5.4,3.1,8.9,3.1s6.5-1.5,8.9-4.5v4h8.7V727.6z
			 M415.9,740.3h-6.1V714h5.4c4.9,0,8.6,1.2,10.9,3.4c2.4,2.3,3.6,5.6,3.6,9.8c0,4.3-1.2,7.5-3.6,9.7
			C423.8,739.2,420.4,740.3,415.9,740.3 M415.4,705.6h-15.3v43.3h14.8c8.3,0,14.4-2,18.4-5.9c4-3.9,6-9.3,6-16
			c0-6.7-2.1-12-6.2-15.8C429.1,707.5,423.2,705.6,415.4,705.6 M357,712.9c1.5,0,2.8-0.5,3.9-1.6c1.1-1.1,1.6-2.3,1.6-3.9
			s-0.5-2.8-1.6-3.9s-2.3-1.6-3.9-1.6c-1.5,0-2.8,0.5-3.9,1.6c-1.1,1.1-1.6,2.3-1.6,3.9s0.5,2.8,1.6,3.9
			C354.2,712.4,355.5,712.9,357,712.9 M361.6,715.5h-9.3v33.4h9.3V715.5z M314.7,725.5c1.6-1.8,3.5-2.7,5.6-2.7c2.2,0,4,0.9,5.5,2.7
			s2.3,4,2.3,6.8c0,2.7-0.8,4.9-2.3,6.6c-1.5,1.7-3.3,2.6-5.5,2.6c-2.1,0-4-0.9-5.6-2.6c-1.6-1.7-2.4-3.9-2.4-6.6
			C312.3,729.6,313.1,727.3,314.7,725.5 M328,744.5v4.4h9.3v-46H328v16.4c-2.6-2.9-5.9-4.3-9.9-4.3c-4,0-7.6,1.6-10.6,4.7
			c-3,3.2-4.5,7.2-4.5,12.2c0,5,1.5,9.1,4.6,12.5c3.1,3.4,6.6,5,10.6,5C322.2,749.4,325.4,747.8,328,744.5"/>
		<path fill="#FFFFFF" d="M890.4,121.7c-2-3.9-2.3-8.4-0.7-13.3c1.6-4.9,4.4-8.4,8.5-10.3c4.1-1.9,8.4-2.2,12.8-0.7
			c5.6,1.8,9.5,5.6,11.8,11.4l10-6c-3.8-8.5-10-14.1-18.7-16.9c-7.8-2.5-15.2-1.9-22.3,1.6c-7.1,3.6-11.9,9.3-14.4,17.1
			c-2.5,7.9-1.9,15.2,1.7,22.1c3.6,6.8,9.6,11.6,17.7,14.2c8.2,2.6,16.4,1.5,24.5-3.4l-5.1-10.2c-5.2,3.4-10.7,4.2-16.5,2.4
			C895.6,128.3,892.4,125.6,890.4,121.7 M801.5,60.3l-10.9,54.6l40.3,8.1l2.2-10.8l-28.1-5.6l2.3-11.3l24.5,4.9l2.1-10.4l-24.5-4.9
			l2.3-11.3l27.2,5.4l2.2-10.9L801.5,60.3z M730.4,62.4c5.1,0.5,9.9,2.8,14.4,6.9l7.1-8.4c-2.5-2.6-5.6-4.7-9.2-6.3
			c-3.6-1.6-7.2-2.6-10.9-3c-5.7-0.6-10.5,0.4-14.6,2.9c-4.1,2.5-6.3,6.4-6.9,11.6c-0.5,5.3,0.6,9.3,3.4,12
			c2.7,2.8,7.3,5.2,13.6,7.4c4,1.4,6.6,2.7,7.9,3.8c1.3,1.1,1.8,2.5,1.7,4.2c-0.2,1.7-0.9,2.9-2.3,3.8c-1.4,0.9-3.2,1.2-5.5,0.9
			c-5.1-0.5-10.4-3.6-15.8-9.5l-8.3,8.3c6.4,7.2,14,11.2,22.8,12.1c6.1,0.6,11.1-0.5,15.2-3.2c4-2.7,6.3-6.6,6.8-11.6
			c0.5-5-0.6-8.9-3.3-11.8c-2.7-2.9-6.6-5.2-11.7-7c-5.1-1.8-8.4-3.3-9.8-4.4c-1.4-1.1-2-2.4-1.8-4.1c0.2-1.6,0.9-2.9,2.2-3.7
			C726.7,62.5,728.4,62.2,730.4,62.4 M522.8,55.7l4.3,55.5L568,108l-0.9-11l-28.5,2.2l-0.9-11.5l24.9-1.9l-0.8-10.6l-24.9,1.9
			L536,65.7l27.7-2.2l-0.9-11L522.8,55.7z M487.7,117.5l-1.8-10.9l-23.4,3.9l-7.4-44l-12.3,2.1l9.2,54.9L487.7,117.5z M354.6,93.3
			l16.2,53.3l39.3-11.9l-3.2-10.5l-27.4,8.3l-3.3-11.1l23.9-7.2l-3.1-10.1l-23.9,7.2l-3.3-11l26.5-8l-3.2-10.6L354.6,93.3z"/>
	</g>
	<polygon fill="#FFFFFF" points="651.7,49.4 651.7,85.4 624.2,49.4 612.5,49.4 612.5,105.4 625,105.4 625,70.3 651.7,105.4 
		664.2,105.4 664.2,49.4 	"/>
</g>
</svg>
