<svg xmlns="http://www.w3.org/2000/svg" viewBox="0 0 1280 800" fill="#fff"><path d="M468.5 464.7c0-1.8 1.5-3.3 3.3-3.3h327.7c1.8 0 3.3 1.5 3.3 3.3v8.9c0 1.8-1.5 3.3-3.3 3.3H471.8c-1.8 0-3.3-1.5-3.3-3.3v-8.9zm126.4-105.1h173.8c10 0 18.5 5.5 18.5 12v78.7h-303c2.5-50.1 51.9-90.7 110.7-90.7m-29.2-105.1c0-4.3 3.6-7.8 7.8-7.8h3.5v1.1c0 7.9 6.5 14.4 14.4 14.4h136.9c7.9 0 14.4-6.5 14.4-14.4v-1.1h3.8c4.1 0 7.5 3.5 7.5 7.7v94.1H620.2c-8.7-8.9-35.8-36.5-40.9-42.1-9.6-10.5-11.7-22.4-11.7-22.5-1.1-6.9-1.9-18.5-1.9-25.5v-3.9zm166-6.7c0 1.8-1.5 3.3-3.3 3.3H591.5c-1.8 0-3.3-1.5-3.3-3.3v-13.3c0-1.8 1.5-3.3 3.3-3.3h136.9c1.8 0 3.3 1.5 3.3 3.3v13.3zm67.7 202.5h-1.2v-78.7c0-12.7-13.3-23.1-29.5-23.1h-3.5v-94.1c0-10.4-8.3-18.8-18.6-18.8h-3.8v-1.1c0-7.9-6.5-14.4-14.4-14.4H591.5c-7.9 0-14.4 6.5-14.4 14.4v1.1h-3.5c-10.3 0-18.8 8.4-18.9 18.8v4c-.1 7.6.8 19.8 2 27.3.1.6 2.5 15.2 14.5 28.2 4.4 4.8 23.7 24.5 33.6 34.6H595c-64.9 0-119.3 45.6-121.8 101.8h-1.3c-7.9 0-14.4 6.5-14.4 14.4v8.9c0 7.9 6.5 14.4 14.4 14.4h327.7c7.9 0 14.4-6.5 14.4-14.4v-8.9c-.2-7.9-6.6-14.4-14.6-14.4M1196.4 620.8h-13.9l7-16.2 6.9 16.2zm23.1 22.9l-24.1-55.7h-12l-24.1 55.7h13.2l5.2-12h23.3l5.2 12h13.3zm-87-19.8l-27.3-35.9h-11.6v55.7h12.4v-34.9l26.5 34.9h12.4V588h-12.4v35.9zm-76.5-3.1h-14l7-16.2 7 16.2zm23.1 22.9L1055 588h-12l-24.1 55.7h13.2l5.2-12h23.4l5.2 12h13.2zm-87 0h12.4V588h-12.4v55.7zm-31.6-13c-2.9 1.7-6.4 2.5-10.8 2.5s-8-1.6-11.1-4.7c-3.1-3.2-4.7-7.4-4.7-12.6s1.6-9.5 4.9-12.7c3.2-3.2 7.2-4.8 12-4.8 2.4 0 4.7.4 6.8 1.2 2.1.8 4.4 2.3 6.9 4.5l6.5-9.3c-5.9-5.3-12.8-7.9-20.8-7.9s-14.8 2.8-20.5 8.3c-5.7 5.5-8.5 12.4-8.5 20.7s2.8 15.1 8.3 20.5c5.6 5.4 12.4 8.1 20.6 8.1 9.8 0 17.4-3.1 23-9.2v-19.8h-12.5v15.2zm-70.3 13h12.4V588h-12.4v55.7zm-17-44.9V588h-44v10.8H845v45h12.4v-45h15.8zm-82.7 16.4h-9.1v-16.5h9.3c4 0 6.8.6 8.4 1.7 1.6 1.1 2.4 3.2 2.4 6.2s-.8 5.2-2.3 6.6c-1.5 1.3-4.4 2-8.7 2m18.1-22.8c-3.7-2.9-9.9-4.4-18.5-4.4H769v55.7h12.4V626h8.6l12.4 17.8h15.3l-14.1-19.9c7.1-2.6 10.6-8.4 10.6-17.3 0-6.6-1.9-11.3-5.6-14.2m-77.1 28.4h-13.9l7-16.2 6.9 16.2zm23.1 22.9L730.5 588h-12l-24.1 55.7h13.2l5.2-12h23.4l5.2 12h13.2zm-119.5-22.9h-13.9l7-16.2 6.9 16.2zm23.1 22.9L634.1 588h-12L598 643.7h13.2l5.2-12h23.4l5.2 12h13.2zm-87 0h12.4V588h-12.4v55.7zm-44.4-28.5h-9.1v-16.5h9.3c4 0 6.8.6 8.4 1.7 1.6 1.1 2.4 3.2 2.4 6.2s-.8 5.2-2.3 6.6c-1.6 1.3-4.5 2-8.7 2m18.1-22.8c-3.7-2.9-9.9-4.4-18.5-4.4h-21.1v55.7h12.4V626h8.6l12.4 17.8H554l-14.1-19.9c7.1-2.6 10.6-8.4 10.6-17.3 0-6.6-1.9-11.3-5.6-14.2m-99.7-4.4v55.7h41v-11h-28.6v-11.6h24.9v-10.6h-24.9V599h27.7v-11h-40.1zm-49 44.7h-7.9v-33.9h6.9c6.3 0 11 1.5 14.1 4.4 3.1 2.9 4.6 7.2 4.6 12.6 0 5.5-1.5 9.6-4.6 12.5-3 3-7.4 4.4-13.1 4.4m-.6-44.7h-19.7v55.7h19c10.6 0 18.5-2.5 23.7-7.6 5.2-5.1 7.8-11.9 7.8-20.6 0-8.7-2.7-15.4-8-20.3-5.2-4.7-12.9-7.2-22.8-7.2m-53.8 35.9L314.5 588h-11.6v55.7h12.4v-34.9l26.5 34.9h12.4V588h-12.4v35.9zm-76.5-3.1h-13.9l7-16.2 6.9 16.2zm23.1 22.9L264.3 588h-12l-24.1 55.7h13.2l5.2-12H270l5.2 12h13.2zM182.5 588H169l22.4 55.7h10.5l22.4-55.7h-13.5l-14.2 35.5-14.1-35.5zM142 620.8h-13.9l7-16.2 6.9 16.2zm23.1 22.9L141 588h-12l-24.1 55.7h13.2l5.2-12h23.4l5.2 12h13.2zm-70 0v-11.1H71.4V588H59v55.7h36.1zM365 332.8h-9.3v46h9.3v-46zm-35.3 37.4c-1.3 1-2.7 1.5-4.4 1.5-1.7 0-2.9-.3-3.8-1-.9-.6-1.3-1.6-1.3-2.8 0-2.3 1.9-3.5 5.6-3.5h5.8v1.6c0 1.8-.6 3.2-1.9 4.2m11.3-12.6c0-4.4-1.3-7.6-3.8-9.6-2.6-2-5.9-3-9.9-3-5.6 0-10.6 1.6-15 4.8l4.2 6c1.2-1 2.8-1.7 4.6-2.4 1.8-.6 3.5-1 5.1-1 3.8 0 5.6 1.8 5.6 5.3v.2h-6.9c-4.3 0-7.7.8-10.2 2.5-2.5 1.7-3.7 4.2-3.7 7.7 0 3.4 1.2 6.1 3.6 8.2 2.4 2 5.4 3.1 8.9 3.1s6.5-1.5 8.9-4.5v4h8.7v-21.3zm-66-2.1c1.6-1.8 3.5-2.7 5.6-2.7 2.2 0 4 .9 5.5 2.7 1.5 1.8 2.3 4 2.3 6.8 0 2.7-.8 4.9-2.3 6.6-1.5 1.7-3.3 2.6-5.5 2.6-2.1 0-4-.9-5.6-2.6-1.6-1.7-2.4-3.9-2.4-6.6.1-2.8.8-5 2.4-6.8m13.3 18.9v4.4h9.3v-46h-9.3v16.4c-2.6-2.9-5.9-4.3-9.9-4.3s-7.6 1.6-10.6 4.7c-3 3.2-4.5 7.2-4.5 12.2 0 5 1.5 9.1 4.6 12.5 3.1 3.4 6.6 5 10.6 5s7.2-1.6 9.8-4.9M1026.4 343.7h8.2v35.1h9.3v-43.3h-17.5v8.2zm-33.2 9.8c-1.1-1.3-1.6-2.8-1.6-4.6 0-1.8.6-3.3 1.8-4.5 1.2-1.2 2.7-1.8 4.6-1.8 1.9 0 3.4.7 4.6 2 1.2 1.3 1.9 2.9 1.9 4.7s-.6 3.3-1.9 4.4c-1.3 1.1-2.9 1.7-4.8 1.7s-3.6-.6-4.6-1.9m-.7 16.5c-1.4-.7-2.3-1.2-2.8-1.6-.5-.4-.9-.7-1.1-1l-4.8 6.8c1.2 1 2.3 1.7 3.3 2.3 1 .6 2.4 1.2 4.2 1.8 1.9.6 3.8.9 5.8.9 4.8 0 8.9-1.7 12.3-5.2 1.7-1.7 3-4.1 3.9-7.1 1-3 1.5-6.5 1.5-10.4 0-6.2-1.2-11.3-3.7-15.4-1.3-2.1-3-3.8-5.3-4.9-2.3-1.2-4.9-1.8-8-1.8-4.4 0-8.1 1.3-11 4-2.9 2.7-4.4 6.2-4.4 10.6 0 4.4 1.4 7.9 4.1 10.6 2.7 2.7 6.1 4 10.1 4 3.1 0 5.9-.9 8.6-2.7-.3 3.1-1.2 5.6-2.7 7.4-1.5 1.8-3.5 2.7-6.2 2.7-1.2 0-2.5-.3-3.8-1M948 353.5c-1.1-1.3-1.6-2.8-1.6-4.6 0-1.8.6-3.3 1.8-4.5 1.2-1.2 2.7-1.8 4.6-1.8 1.9 0 3.4.7 4.6 2 1.2 1.3 1.9 2.9 1.9 4.7s-.6 3.3-1.9 4.4c-1.3 1.1-2.9 1.7-4.8 1.7-2.1 0-3.6-.6-4.6-1.9m-.7 16.5c-1.4-.7-2.3-1.2-2.8-1.6-.5-.4-.9-.7-1.1-1l-4.8 6.8c1.2 1 2.3 1.7 3.3 2.3 1 .6 2.4 1.2 4.2 1.8 1.9.6 3.8.9 5.8.9 4.8 0 8.9-1.7 12.3-5.2 1.7-1.7 3-4.1 3.9-7.1 1-3 1.5-6.5 1.5-10.4 0-6.2-1.2-11.3-3.7-15.4-1.3-2.1-3-3.8-5.3-4.9-2.3-1.2-4.9-1.8-8-1.8-4.4 0-8.1 1.3-11 4-2.9 2.7-4.4 6.2-4.4 10.6 0 4.4 1.4 7.9 4.1 10.6 2.7 2.7 6.1 4 10.1 4 3.1 0 5.9-.9 8.6-2.7-.3 3.1-1.2 5.6-2.7 7.4-1.5 1.8-3.5 2.7-6.2 2.7-1.2 0-2.4-.3-3.8-1m-42.5-26.3h8.2v35.1h9.3v-43.3h-17.5v8.2zM963.3 720c-3.3-3.3-7.5-5-12.6-5s-9.3 1.7-12.6 5c-3.3 3.3-5 7.4-5 12.2 0 4.8 1.7 8.9 5 12.2 3.4 3.3 7.6 5 12.6 5 5.1 0 9.3-1.7 12.6-5 3.4-3.3 5-7.4 5-12.2 0-4.8-1.7-8.9-5-12.2m-18.6 5.5c1.5-1.7 3.5-2.6 5.9-2.6s4.4.9 6 2.6c1.5 1.7 2.3 4 2.3 6.7s-.8 5-2.3 6.7c-1.6 1.7-3.5 2.6-6 2.6s-4.4-.9-5.9-2.6c-1.6-1.7-2.3-3.9-2.3-6.7 0-2.7.8-4.9 2.3-6.7M920 702.9h-9.3v46h9.3v-46zm-24.3 0h-9.3v46h9.3v-46zm-35.3 37.3c-1.3 1-2.7 1.5-4.4 1.5-1.7 0-2.9-.3-3.8-1-.9-.6-1.3-1.6-1.3-2.8 0-2.3 1.9-3.5 5.6-3.5h5.8v1.6c0 1.9-.6 3.2-1.9 4.2m11.3-12.6c0-4.4-1.3-7.6-3.8-9.6-2.6-2-5.9-3-9.9-3-5.6 0-10.6 1.6-15 4.8l4.2 6c1.2-1 2.8-1.7 4.6-2.4 1.8-.6 3.5-1 5.1-1 3.8 0 5.6 1.8 5.6 5.3v.2h-6.9c-4.3 0-7.7.8-10.2 2.5-2.5 1.7-3.7 4.2-3.7 7.7 0 3.4 1.2 6.1 3.6 8.2 2.4 2 5.4 3.1 8.9 3.1s6.5-1.5 8.9-4.5v4h8.7v-21.3zm-64.4-2.1c1.5-1.8 3.4-2.7 5.5-2.7 2.2 0 4.1.9 5.6 2.7 1.6 1.8 2.4 4.1 2.4 6.8s-.8 4.9-2.4 6.6c-1.6 1.7-3.5 2.6-5.6 2.6-2.1 0-4-.9-5.5-2.6-1.5-1.7-2.3-3.9-2.3-6.6 0-2.8.8-5 2.3-6.8m-2.1-6.2v-16.4h-9.3v46h9.3v-4.4c2.6 3.3 5.9 4.9 9.8 4.9s7.5-1.7 10.6-5c3.1-3.3 4.6-7.5 4.6-12.5s-1.5-9-4.5-12.2c-3-3.2-6.6-4.7-10.6-4.7-4.1 0-7.4 1.4-9.9 4.3m-35.3 20.9c-1.3 1-2.7 1.5-4.4 1.5-1.7 0-2.9-.3-3.8-1-.9-.6-1.3-1.6-1.3-2.8 0-2.3 1.9-3.5 5.6-3.5h5.8v1.6c0 1.9-.6 3.2-1.9 4.2m11.3-12.6c0-4.4-1.3-7.6-3.8-9.6-2.6-2-5.9-3-9.9-3-5.6 0-10.6 1.6-15 4.8l4.1 6c1.2-1 2.8-1.7 4.6-2.4 1.8-.6 3.5-1 5.1-1 3.8 0 5.6 1.8 5.6 5.3v.2H765c-4.3 0-7.7.8-10.2 2.5-2.5 1.7-3.7 4.2-3.7 7.7 0 3.4 1.2 6.1 3.6 8.2 2.4 2 5.4 3.1 8.9 3.1s6.5-1.5 8.9-4.5v4h8.7v-21.3zm-52 11.1c-2.2 1.3-5 1.9-8.4 1.9-3.4 0-6.2-1.2-8.7-3.7-2.4-2.5-3.6-5.7-3.6-9.8 0-4.1 1.3-7.4 3.8-9.9s5.6-3.8 9.3-3.8c1.9 0 3.7.3 5.3 1 1.6.6 3.4 1.8 5.4 3.5l5-7.3c-4.6-4.1-10-6.1-16.2-6.1-6.2 0-11.5 2.1-15.9 6.4-4.4 4.3-6.6 9.7-6.6 16.1 0 6.4 2.2 11.7 6.5 16 4.3 4.2 9.7 6.3 16 6.3 7.6 0 13.6-2.4 17.9-7.2v-15.4h-9.7v12zm-77.6 1.5c-1.3 1-2.7 1.5-4.4 1.5s-2.9-.3-3.8-1c-.9-.6-1.3-1.6-1.3-2.8 0-2.3 1.9-3.5 5.6-3.5h5.8v1.6c0 1.9-.6 3.2-1.9 4.2m11.3-12.6c0-4.4-1.3-7.6-3.8-9.6-2.6-2-5.9-3-9.9-3-5.6 0-10.6 1.6-15 4.8l4.2 6c1.2-1 2.8-1.7 4.6-2.4 1.8-.6 3.5-1 5.1-1 3.8 0 5.6 1.8 5.6 5.3v.2h-6.9c-4.3 0-7.7.8-10.2 2.5-2.5 1.7-3.7 4.2-3.7 7.7 0 3.4 1.2 6.1 3.6 8.2 2.4 2 5.4 3.1 8.9 3.1s6.5-1.5 8.9-4.5v4h8.7v-21.3zm-43.3-24.7h-9.3v46h9.3v-46zm-31.6 26h-14.6c.3-1.9 1.1-3.4 2.7-4.5 1.5-1.1 3.2-1.7 5.1-1.7 1.8 0 3.4.5 4.7 1.6 1.1 1.1 1.8 2.6 2.1 4.6m1.4 9.5c-2.1 2.2-4.8 3.3-8.1 3.3-2 0-3.8-.6-5.5-1.7-1.6-1.2-2.6-2.6-2.9-4.5h24.3v-5c0-4.8-1.6-8.6-4.8-11.4-3.2-2.8-7.1-4.2-11.7-4.2s-8.6 1.6-11.9 4.6c-3.4 3.1-5.1 7.3-5.1 12.5s1.7 9.4 5 12.6c3.3 3.1 7.5 4.7 12.6 4.7s9.5-1.8 13.2-5.3l-5.1-5.6zm-43.3-25.5c1.5 0 2.8-.5 3.9-1.6s1.6-2.3 1.6-3.9-.5-2.8-1.6-3.9-2.3-1.6-3.9-1.6c-1.5 0-2.8.5-3.9 1.6s-1.6 2.3-1.6 3.9.5 2.8 1.6 3.9 2.4 1.6 3.9 1.6m4.7 2.6h-9.3v33.4h9.3v-33.4zm-43.8 8.9c1.4-1.3 3-2 4.9-2 3.8 0 5.6 2.6 5.6 7.7v18.8h9.3v-20.3c0-4.1-1.2-7.4-3.6-9.9-2.4-2.5-5.3-3.7-8.8-3.7-3.5 0-6.7 1.4-9.5 4.3v-3.7h-9.3V749h9.3v-18.6c.1-2.7.7-4.7 2.1-6m-37.3 15.8c-1.3 1-2.7 1.5-4.4 1.5-1.7 0-2.9-.3-3.8-1-.9-.6-1.3-1.6-1.3-2.8 0-2.3 1.9-3.5 5.6-3.5h5.8v1.6c0 1.9-.6 3.2-1.9 4.2m11.3-12.6c0-4.4-1.3-7.6-3.8-9.6-2.6-2-5.9-3-9.9-3-5.6 0-10.6 1.6-15 4.8l4.2 6c1.2-1 2.8-1.7 4.6-2.4 1.8-.6 3.5-1 5.1-1 3.8 0 5.6 1.8 5.6 5.3v.2h-6.9c-4.3 0-7.7.8-10.2 2.5-2.5 1.7-3.7 4.2-3.7 7.7 0 3.4 1.2 6.1 3.6 8.2 2.4 2 5.4 3.1 8.9 3.1s6.5-1.5 8.9-4.5v4h8.7v-21.3zm-65.1 12.7h-6.1V714h5.4c4.9 0 8.6 1.2 10.9 3.4 2.4 2.3 3.6 5.6 3.6 9.8 0 4.3-1.2 7.5-3.6 9.7-2.3 2.3-5.7 3.4-10.2 3.4m-.5-34.7h-15.3v43.3h14.8c8.3 0 14.4-2 18.4-5.9 4-3.9 6-9.3 6-16 0-6.7-2.1-12-6.2-15.8-4-3.7-9.9-5.6-17.7-5.6m-58.4 7.3c1.5 0 2.8-.5 3.9-1.6s1.6-2.3 1.6-3.9-.5-2.8-1.6-3.9-2.3-1.6-3.9-1.6c-1.5 0-2.8.5-3.9 1.6s-1.6 2.3-1.6 3.9.5 2.8 1.6 3.9 2.4 1.6 3.9 1.6m4.6 2.6h-9.3v33.4h9.3v-33.4zm-46.9 10c1.6-1.8 3.5-2.7 5.6-2.7 2.2 0 4 .9 5.5 2.7s2.3 4 2.3 6.8c0 2.7-.8 4.9-2.3 6.6-1.5 1.7-3.3 2.6-5.5 2.6-2.1 0-4-.9-5.6-2.6-1.6-1.7-2.4-3.9-2.4-6.6 0-2.7.8-5 2.4-6.8m13.3 19v4.4h9.3v-46H328v16.4c-2.6-2.9-5.9-4.3-9.9-4.3s-7.6 1.6-10.6 4.7c-3 3.2-4.5 7.2-4.5 12.2 0 5 1.5 9.1 4.6 12.5 3.1 3.4 6.6 5 10.6 5s7.2-1.6 9.8-4.9M890.4 121.7c-2-3.9-2.3-8.4-.7-13.3 1.6-4.9 4.4-8.4 8.5-10.3 4.1-1.9 8.4-2.2 12.8-.7 5.6 1.8 9.5 5.6 11.8 11.4l10-6c-3.8-8.5-10-14.1-18.7-16.9-7.8-2.5-15.2-1.9-22.3 1.6-7.1 3.6-11.9 9.3-14.4 17.1-2.5 7.9-1.9 15.2 1.7 22.1 3.6 6.8 9.6 11.6 17.7 14.2 8.2 2.6 16.4 1.5 24.5-3.4l-5.1-10.2c-5.2 3.4-10.7 4.2-16.5 2.4-4.1-1.4-7.3-4.1-9.3-8m-88.9-61.4l-10.9 54.6 40.3 8.1 2.2-10.8-28.1-5.6 2.3-11.3 24.5 4.9 2.1-10.4-24.5-4.9 2.3-11.3 27.2 5.4 2.2-10.9-39.6-7.8zm-71.1 2.1c5.1.5 9.9 2.8 14.4 6.9l7.1-8.4c-2.5-2.6-5.6-4.7-9.2-6.3-3.6-1.6-7.2-2.6-10.9-3-5.7-.6-10.5.4-14.6 2.9s-6.3 6.4-6.9 11.6c-.5 5.3.6 9.3 3.4 12 2.7 2.8 7.3 5.2 13.6 7.4 4 1.4 6.6 2.7 7.9 3.8 1.3 1.1 1.8 2.5 1.7 4.2-.2 1.7-.9 2.9-2.3 3.8-1.4.9-3.2 1.2-5.5.9-5.1-.5-10.4-3.6-15.8-9.5L705 97c6.4 7.2 14 11.2 22.8 12.1 6.1.6 11.1-.5 15.2-3.2 4-2.7 6.3-6.6 6.8-11.6s-.6-8.9-3.3-11.8c-2.7-2.9-6.6-5.2-11.7-7-5.1-1.8-8.4-3.3-9.8-4.4-1.4-1.1-2-2.4-1.8-4.1.2-1.6.9-2.9 2.2-3.7 1.3-.8 3-1.1 5-.9m-207.6-6.7l4.3 55.5L568 108l-.9-11-28.5 2.2-.9-11.5 24.9-1.9-.8-10.6-24.9 1.9-.9-11.4 27.7-2.2-.9-11-40 3.2zm-35.1 61.8l-1.8-10.9-23.4 3.9-7.4-44-12.3 2.1 9.2 54.9 35.7-6zM354.6 93.3l16.2 53.3 39.3-11.9-3.2-10.5-27.4 8.3-3.3-11.1 23.9-7.2-3.1-10.1-23.9 7.2-3.3-11 26.5-8-3.2-10.6-38.5 11.6zM651.7 49.4v36l-27.5-36h-11.7v56H625V70.3l26.7 35.1h12.5v-56"/></svg>